<svg width="3983" height="3081" xmlns="http://www.w3.org/2000/svg" xmlns:xlink="http://www.w3.org/1999/xlink" xml:space="preserve" overflow="hidden"><g transform="translate(-274 140)"><text fill="#8338EC" font-family="Forte,Forte_MSFontService,sans-serif" font-weight="700" font-size="1467" transform="matrix(1 0 0 1 1787.48 1717)">M</text><text fill="#390099" font-family="Comic Sans MS,Comic Sans MS_MSFontService,sans-serif" font-weight="700" font-size="1375" transform="matrix(1 0 0 1 1099.14 1706)">C</text><text fill="#390099" font-family="Forte,Forte_MSFontService,sans-serif" font-weight="700" font-size="917" transform="matrix(1 0 0 1 1901.51 1468)">’</text><g><g><g><path d="M316.946 158.318C314.798 158.352 312.667 158.646 310.591 159.196 272.812 159.794 231.559 161.025 197.058 162.398 146.793 164.411 101.867 194.837 81.4574 240.808L81.509 240.808 39.6182 335.025C16.3977 341.073-7.64448e-15 361.966 0 386.109L0 487.505C0 511.836 16.6212 533.056 40.2379 538.901L86.2612 550.212C100.062 584.093 133.289 608.27 171.902 608.27 208.482 608.27 240.074 586.46 255.064 555.377L564.779 555.377C579.769 586.46 611.359 608.27 647.94 608.27 687.24 608.27 720.866 583.18 734.201 548.353L756.979 540.863C778.718 533.749 793.396 513.454 793.396 490.604L793.396 399.229C793.396 374.422 776.195 352.892 751.97 347.576 719.883 340.523 673.046 331.357 626.399 323.608L545.925 207.853C527.508 181.371 497.922 164.599 465.604 162.657 434.784 160.812 389.515 158.679 343.805 158.679 337.638 158.679 329.87 158.918 323.195 158.989 321.146 158.518 319.048 158.292 316.946 158.318ZM343.805 211.572C387.854 211.572 432.234 213.641 462.402 215.446 478.481 216.413 493.238 224.726 502.484 238.019 502.484 238.036 502.484 238.053 502.484 238.07L557.649 317.358 409.921 317.358 343.805 317.358 343.805 211.572ZM409.921 317.358C431.83 317.358 449.591 299.597 449.591 277.689 449.591 255.78 431.83 238.019 409.921 238.019 388.013 238.019 370.251 255.78 370.251 277.689 370.251 299.597 388.013 317.358 409.921 317.358ZM290.912 212.45 290.912 317.358 198.349 317.358 117.15 317.358 104.03 320.302 129.805 262.296C142.083 234.64 168.884 216.453 199.175 215.24 227.122 214.127 259.471 213.161 290.912 212.45ZM198.349 317.358C220.258 317.358 238.019 299.597 238.019 277.689 238.019 255.78 220.258 238.019 198.349 238.019 176.44 238.019 158.679 255.78 158.679 277.689 158.679 299.597 176.44 317.358 198.349 317.358ZM171.902 476.038C194.125 476.038 211.572 493.484 211.572 515.707 211.572 537.93 194.125 555.377 171.902 555.377 149.68 555.377 132.233 537.93 132.233 515.707 132.233 493.484 149.68 476.038 171.902 476.038ZM647.94 476.038C670.163 476.038 687.61 493.484 687.61 515.707 687.61 537.93 670.163 555.377 647.94 555.377 625.717 555.377 608.27 537.93 608.27 515.707 608.27 493.484 625.717 476.038 647.94 476.038Z" stroke="#FB5607" stroke-width="0.00793396" fill="#FB5607" transform="matrix(1 0 0 1 1405.8 840.802)"/></g></g></g></g></svg>